<mxfile host="app.diagrams.net" agent="Mozilla/5.0 (Windows NT 10.0; Win64; x64) AppleWebKit/537.36 (KHTML, like Gecko) Chrome/130.0.0.0 Safari/537.36" version="24.8.3">
  <diagram name="Pagina-1" id="KLD7pTiiyEP9rBJCwYnz">
    <mxGraphModel dx="863" dy="452" grid="1" gridSize="10" guides="1" tooltips="1" connect="1" arrows="1" fold="1" page="1" pageScale="1" pageWidth="827" pageHeight="1169" math="0" shadow="0">
      <root>
        <mxCell id="0" />
        <mxCell id="1" parent="0" />
        <mxCell id="mK1I2jjguC5y28jz-ryy-10" style="edgeStyle=orthogonalEdgeStyle;rounded=0;orthogonalLoop=1;jettySize=auto;html=1;entryX=0;entryY=0.5;entryDx=0;entryDy=0;" edge="1" parent="1" source="mK1I2jjguC5y28jz-ryy-1" target="mK1I2jjguC5y28jz-ryy-5">
          <mxGeometry relative="1" as="geometry" />
        </mxCell>
        <mxCell id="mK1I2jjguC5y28jz-ryy-11" value="1" style="edgeLabel;html=1;align=center;verticalAlign=middle;resizable=0;points=[];" vertex="1" connectable="0" parent="mK1I2jjguC5y28jz-ryy-10">
          <mxGeometry x="0.151" relative="1" as="geometry">
            <mxPoint as="offset" />
          </mxGeometry>
        </mxCell>
        <mxCell id="mK1I2jjguC5y28jz-ryy-1" value="" style="ellipse;whiteSpace=wrap;html=1;aspect=fixed;fillColor=none;" vertex="1" parent="1">
          <mxGeometry x="80" y="200" width="50" height="50" as="geometry" />
        </mxCell>
        <mxCell id="mK1I2jjguC5y28jz-ryy-4" value="" style="group" vertex="1" connectable="0" parent="1">
          <mxGeometry x="767" y="195" width="60" height="60" as="geometry" />
        </mxCell>
        <mxCell id="mK1I2jjguC5y28jz-ryy-2" value="" style="ellipse;whiteSpace=wrap;html=1;aspect=fixed;fillColor=none;" vertex="1" parent="mK1I2jjguC5y28jz-ryy-4">
          <mxGeometry x="5" y="5" width="50" height="50" as="geometry" />
        </mxCell>
        <mxCell id="mK1I2jjguC5y28jz-ryy-3" value="" style="ellipse;whiteSpace=wrap;html=1;aspect=fixed;fillColor=none;" vertex="1" parent="mK1I2jjguC5y28jz-ryy-4">
          <mxGeometry width="60" height="60" as="geometry" />
        </mxCell>
        <mxCell id="mK1I2jjguC5y28jz-ryy-13" style="edgeStyle=orthogonalEdgeStyle;rounded=0;orthogonalLoop=1;jettySize=auto;html=1;entryX=0;entryY=0.5;entryDx=0;entryDy=0;" edge="1" parent="1">
          <mxGeometry relative="1" as="geometry">
            <mxPoint x="320" y="210" as="sourcePoint" />
            <mxPoint x="390" y="210" as="targetPoint" />
          </mxGeometry>
        </mxCell>
        <mxCell id="mK1I2jjguC5y28jz-ryy-14" value="0.7" style="edgeLabel;html=1;align=center;verticalAlign=middle;resizable=0;points=[];" vertex="1" connectable="0" parent="mK1I2jjguC5y28jz-ryy-13">
          <mxGeometry x="0.0122" relative="1" as="geometry">
            <mxPoint as="offset" />
          </mxGeometry>
        </mxCell>
        <mxCell id="mK1I2jjguC5y28jz-ryy-15" style="edgeStyle=orthogonalEdgeStyle;rounded=0;orthogonalLoop=1;jettySize=auto;html=1;curved=1;" edge="1" parent="1" source="mK1I2jjguC5y28jz-ryy-5">
          <mxGeometry relative="1" as="geometry">
            <mxPoint x="290" y="190" as="targetPoint" />
          </mxGeometry>
        </mxCell>
        <mxCell id="mK1I2jjguC5y28jz-ryy-16" value="0.3" style="edgeLabel;html=1;align=center;verticalAlign=middle;resizable=0;points=[];" vertex="1" connectable="0" parent="mK1I2jjguC5y28jz-ryy-15">
          <mxGeometry x="0.0151" relative="1" as="geometry">
            <mxPoint as="offset" />
          </mxGeometry>
        </mxCell>
        <mxCell id="mK1I2jjguC5y28jz-ryy-5" value="definizione dei requisiti. Tempo di completamento : 2 mesi" style="rounded=1;whiteSpace=wrap;html=1;fillColor=none;fontSize=11;" vertex="1" parent="1">
          <mxGeometry x="200" y="195" width="120" height="60" as="geometry" />
        </mxCell>
        <mxCell id="mK1I2jjguC5y28jz-ryy-17" style="edgeStyle=orthogonalEdgeStyle;rounded=0;orthogonalLoop=1;jettySize=auto;html=1;curved=1;" edge="1" parent="1" source="mK1I2jjguC5y28jz-ryy-6">
          <mxGeometry relative="1" as="geometry">
            <mxPoint x="480" y="190" as="targetPoint" />
          </mxGeometry>
        </mxCell>
        <mxCell id="mK1I2jjguC5y28jz-ryy-18" value="0.2" style="edgeLabel;html=1;align=center;verticalAlign=middle;resizable=0;points=[];" vertex="1" connectable="0" parent="mK1I2jjguC5y28jz-ryy-17">
          <mxGeometry x="0.0888" relative="1" as="geometry">
            <mxPoint as="offset" />
          </mxGeometry>
        </mxCell>
        <mxCell id="mK1I2jjguC5y28jz-ryy-22" style="edgeStyle=orthogonalEdgeStyle;rounded=0;orthogonalLoop=1;jettySize=auto;html=1;entryX=0;entryY=0.5;entryDx=0;entryDy=0;" edge="1" parent="1">
          <mxGeometry relative="1" as="geometry">
            <mxPoint x="510" y="210.0344827586207" as="sourcePoint" />
            <mxPoint x="580" y="210" as="targetPoint" />
            <Array as="points">
              <mxPoint x="520" y="210" />
              <mxPoint x="520" y="210" />
            </Array>
          </mxGeometry>
        </mxCell>
        <mxCell id="mK1I2jjguC5y28jz-ryy-23" value="0.6" style="edgeLabel;html=1;align=center;verticalAlign=middle;resizable=0;points=[];" vertex="1" connectable="0" parent="mK1I2jjguC5y28jz-ryy-22">
          <mxGeometry x="-0.0975" y="1" relative="1" as="geometry">
            <mxPoint as="offset" />
          </mxGeometry>
        </mxCell>
        <mxCell id="mK1I2jjguC5y28jz-ryy-31" style="edgeStyle=orthogonalEdgeStyle;rounded=0;orthogonalLoop=1;jettySize=auto;html=1;entryX=1;entryY=0.5;entryDx=0;entryDy=0;" edge="1" parent="1">
          <mxGeometry relative="1" as="geometry">
            <mxPoint x="390" y="240" as="sourcePoint" />
            <mxPoint x="320" y="240" as="targetPoint" />
          </mxGeometry>
        </mxCell>
        <mxCell id="mK1I2jjguC5y28jz-ryy-32" value="0.2" style="edgeLabel;html=1;align=center;verticalAlign=middle;resizable=0;points=[];" vertex="1" connectable="0" parent="mK1I2jjguC5y28jz-ryy-31">
          <mxGeometry x="-0.0136" y="1" relative="1" as="geometry">
            <mxPoint as="offset" />
          </mxGeometry>
        </mxCell>
        <mxCell id="mK1I2jjguC5y28jz-ryy-6" value="sviluppo del sistema. Tempo di completamento : 4 mesi" style="rounded=1;whiteSpace=wrap;html=1;fillColor=none;fontSize=11;" vertex="1" parent="1">
          <mxGeometry x="390" y="195" width="120" height="60" as="geometry" />
        </mxCell>
        <mxCell id="mK1I2jjguC5y28jz-ryy-25" style="edgeStyle=orthogonalEdgeStyle;rounded=0;orthogonalLoop=1;jettySize=auto;html=1;" edge="1" parent="1" source="mK1I2jjguC5y28jz-ryy-7">
          <mxGeometry relative="1" as="geometry">
            <mxPoint x="769.9999999999998" y="225" as="targetPoint" />
          </mxGeometry>
        </mxCell>
        <mxCell id="mK1I2jjguC5y28jz-ryy-26" value="0.6" style="edgeLabel;html=1;align=center;verticalAlign=middle;resizable=0;points=[];" vertex="1" connectable="0" parent="mK1I2jjguC5y28jz-ryy-25">
          <mxGeometry x="-0.1136" relative="1" as="geometry">
            <mxPoint as="offset" />
          </mxGeometry>
        </mxCell>
        <mxCell id="mK1I2jjguC5y28jz-ryy-27" style="edgeStyle=orthogonalEdgeStyle;rounded=0;orthogonalLoop=1;jettySize=auto;html=1;curved=1;" edge="1" parent="1" source="mK1I2jjguC5y28jz-ryy-7">
          <mxGeometry relative="1" as="geometry">
            <mxPoint x="680" y="190" as="targetPoint" />
          </mxGeometry>
        </mxCell>
        <mxCell id="mK1I2jjguC5y28jz-ryy-28" value="0.1" style="edgeLabel;html=1;align=center;verticalAlign=middle;resizable=0;points=[];" vertex="1" connectable="0" parent="mK1I2jjguC5y28jz-ryy-27">
          <mxGeometry x="-0.0079" y="1" relative="1" as="geometry">
            <mxPoint as="offset" />
          </mxGeometry>
        </mxCell>
        <mxCell id="mK1I2jjguC5y28jz-ryy-33" style="edgeStyle=orthogonalEdgeStyle;rounded=0;orthogonalLoop=1;jettySize=auto;html=1;entryX=1;entryY=0.5;entryDx=0;entryDy=0;" edge="1" parent="1">
          <mxGeometry relative="1" as="geometry">
            <mxPoint x="580" y="239.99999999999994" as="sourcePoint" />
            <mxPoint x="510" y="240" as="targetPoint" />
            <Array as="points">
              <mxPoint x="520" y="240" />
              <mxPoint x="520" y="240" />
            </Array>
          </mxGeometry>
        </mxCell>
        <mxCell id="mK1I2jjguC5y28jz-ryy-34" value="0.2" style="edgeLabel;html=1;align=center;verticalAlign=middle;resizable=0;points=[];" vertex="1" connectable="0" parent="mK1I2jjguC5y28jz-ryy-33">
          <mxGeometry x="0.0136" y="2" relative="1" as="geometry">
            <mxPoint as="offset" />
          </mxGeometry>
        </mxCell>
        <mxCell id="mK1I2jjguC5y28jz-ryy-7" value="collaudo del sistema. Tempo di completamento : 2 mesi" style="rounded=1;whiteSpace=wrap;html=1;fillColor=none;fontSize=11;" vertex="1" parent="1">
          <mxGeometry x="580" y="195" width="120" height="60" as="geometry" />
        </mxCell>
        <mxCell id="mK1I2jjguC5y28jz-ryy-29" style="edgeStyle=orthogonalEdgeStyle;rounded=0;orthogonalLoop=1;jettySize=auto;html=1;entryX=0.547;entryY=0.96;entryDx=0;entryDy=0;entryPerimeter=0;curved=1;" edge="1" parent="1" source="mK1I2jjguC5y28jz-ryy-7" target="mK1I2jjguC5y28jz-ryy-5">
          <mxGeometry relative="1" as="geometry">
            <Array as="points">
              <mxPoint x="640" y="290" />
              <mxPoint x="266" y="290" />
            </Array>
          </mxGeometry>
        </mxCell>
        <mxCell id="mK1I2jjguC5y28jz-ryy-30" value="0.1" style="edgeLabel;html=1;align=center;verticalAlign=middle;resizable=0;points=[];" vertex="1" connectable="0" parent="mK1I2jjguC5y28jz-ryy-29">
          <mxGeometry x="-0.0102" y="1" relative="1" as="geometry">
            <mxPoint as="offset" />
          </mxGeometry>
        </mxCell>
      </root>
    </mxGraphModel>
  </diagram>
</mxfile>
